Patient4_TMGait_0pt2_03_left_24_EMG.mot
version=1
nRows=33
nColumns=33
inDegrees=no
endheader
time	1LAddLong	2LGlutMax	3LGlutMed	4LIliopsoas	5LSemiMemb	6LBicFemLong	7LRecFem	8LVastMed	9LVastLat	10LGasMed	11LTibAnt	12lTibPost	13LPeroneusLong	14LSol	15LExtDigLong	16LFlexDigLong	17RAddLong	18RGlutMax	19RGlutMed	20RIliopsoas	21RSemiMemb	22RBicFemLong	23RRecFem	24RVastMed	25RVastLat	26RGasMed	27RTibAnt	28RTibPost	29RPeroneusLong	30RSol	31RExtDigLong	32RFlexDigLong
50.867	0.000763	0.13931	-0.085907	0.006866	0.001373	0.034943	0.022278	0.00824	-0.032349	0.028992	0.13275	0.001984	0.003052	-0.10651	-0.046997	-0.003052	0.057678	-0.16068	-0.055695	0.039368	0.065918	0.10895	-0.057068	-0.15671	0.040894	-0.001526	-0.033264	0.1889	-0.085449	-0.044556	0.006409	-0.013428
50.868	0.002289	0.11139	-0.16571	-0.001831	0.003357	0.023956	-0.052795	0.014038	0.012054	0.015564	-0.076294	-0.011902	0.053711	-0.11124	0.14557	0.003815	-0.029907	-0.081787	-0.049744	-0.015106	-0.42084	0.21103	0.00473	-0.10452	0.033264	-0.011292	0.002289	0.1683	-0.27435	-0.062256	0.00061	-0.021362
50.869	0.005035	0.097198	-0.17639	-0.031586	0.005035	-0.020905	-0.038147	0.011444	0.061646	-0.002899	-0.13107	-0.005646	-0.011597	-0.14206	-0.072021	0.000153	-0.005188	-0.065918	-0.043488	0.056305	-0.1326	0.18539	0.021667	-0.13886	0.035095	-0.00946	0.006409	0.068817	-0.23086	-0.37598	-0.002136	-0.014954
50.87	0.000916	0.11368	-0.07843	-0.008087	-0.00824	0.014191	0.057983	0.005035	0.048981	-0.027313	-0.014801	-0.011902	0.029449	-0.14557	-0.12314	-0.009003	0.058136	-0.021515	-0.11963	0.045471	0.075989	0.073242	0.027161	-0.11917	0.011597	-0.005341	-0.010071	-0.00946	0.33859	-0.41	-0.004272	-0.010223
50.871	-0.006561	0.10727	0.007935	0.019531	-0.018768	0.019379	0.088654	0.00824	0.055847	-0.052643	0.015717	-0.007935	0.042725	-0.055542	-0.091705	-0.001068	0.049744	-0.059662	-0.031891	-0.050507	-0.27649	0.28488	-0.016937	-0.08667	0.03067	-0.006561	-0.027161	-0.023651	0.27802	-0.16495	-0.004425	-0.007477
50.872	-0.018921	0.069427	0.095215	0.050354	-0.027008	-0.029449	0.11765	-0.006104	0.054932	-0.017395	0.023346	-0.007172	0.038452	0.043488	-0.16693	-0.009613	-0.035248	-0.069275	0.40085	-0.062561	-0.65247	0.336	-0.078888	0.099792	0.042419	-0.015564	-0.015717	0.112	0.08194	-0.11215	-0.002136	-0.004425
50.873	-0.014191	-0.034485	0.13168	0.028839	-0.033722	-0.084991	0.066833	-0.006714	-0.01709	0.016937	-0.002594	-0.010529	-0.059967	0.052032	-0.026093	-0.008545	-0.054779	-0.07843	0.15228	-0.04776	-0.034637	-0.009003	-0.03418	0.095062	0.05188	-0.017395	-0.010834	0.061646	-0.006104	-0.23666	-0.008392	0.001831
50.874	-0.014496	-0.094452	-0.063934	0.007782	-0.026245	-0.096283	0.08667	-0.004425	-0.029755	0.019684	-0.081635	-0.004425	-0.095367	-0.010376	0.018768	-0.001221	-0.039825	-0.019073	-0.17181	-0.103	0.30884	-0.31387	-0.014801	0.12726	0.027161	-0.009003	-0.004883	0.011749	0.068359	-0.31387	-0.002136	-0.003815
50.875	-0.006409	-0.066681	0.003357	0.000153	-0.033569	-0.079041	0.16571	0.017242	-0.11719	0.016327	-0.010071	-0.006866	-0.075989	-0.05722	0.051422	0.000305	-0.040283	-0.01236	-0.22461	-0.092926	0.29968	-0.31555	0.011597	0.12909	0.031281	-0.011139	0.001221	-0.13382	0.1294	0.22537	-0.001526	-0.003204
50.876	0.006409	-0.055847	0.031128	-0.014801	-0.016937	-0.06485	0.10574	0.023499	-0.22659	0.02594	0.13214	-0.005188	-0.10819	-0.071106	0.28046	-0.000916	0.016174	-0.032806	0.047607	-0.14435	0.19302	-0.17395	0.023041	0.083771	0.031281	-0.011749	0.011444	0.074005	0.090027	0.4361	-0.002747	-0.003052
50.877	0.019226	-0.046539	0.048523	-0.010986	0.066223	-0.050659	0.032501	0.018158	-0.20889	0.014343	0.095062	-0.001068	-0.090332	0.000458	0.19989	0.009918	0.037384	0.009308	0.47669	-0.045319	0.19699	-0.10284	-0.014801	0.025177	0.027618	-0.007172	0.008392	0.00946	0.041656	0.23117	-0.002136	-0.012512
50.878	0.023346	-0.024414	0.022736	-0.005035	0.079193	-0.013123	-0.020599	0.000153	-0.06485	-0.002899	0.11505	-0.004883	-0.052795	0.015106	0.09613	0.013275	0.036621	-0.00061	-0.016174	0.11444	0.061646	0.004883	0.000458	-0.010529	0.031738	-0.007019	0.006714	-0.009918	-0.029144	0.044098	-0.003052	-0.007324
50.879	0.014648	0.053406	-0.04715	-0.006714	0.02655	0.011444	0.093842	-0.014343	0.031281	-0.028534	-0.077515	-0.010071	0.019684	-0.088196	-0.16296	0.007019	-0.007935	-0.049133	-0.25497	0.18723	-0.11536	0.040588	0.016022	-0.12054	-0.004883	-0.007782	0.00946	-0.012207	-0.039825	-0.015564	-0.004272	-0.007477
50.88	0.000305	0.063171	-0.1059	0.016174	0.001221	0.022888	0.091248	-0.008545	0.14557	0.002899	-0.10727	-0.00946	0.0354	-0.079041	-0.039825	-0.007782	-0.000916	-0.050812	0.010529	0.10284	-0.34012	0.049744	0.002136	-0.12558	-0.006866	-0.005798	0.006561	-0.019226	-0.046082	-0.031433	-0.001831	-0.014038
50.881	0.007629	0.089417	-0.01236	0.026245	0.011292	0.007782	-0.054626	0.006866	0.096893	0.044708	0.037689	-0.005646	-0.089722	-0.063629	0.17624	-0.014801	0.019836	-0.014954	0.17883	0.075836	-0.10986	0.071564	-0.012512	-0.071411	0.002747	-0.006714	0.017548	-0.012207	-0.014648	-0.011902	-0.000153	-0.011902
50.882	0.004272	0.11826	0.010223	0.009308	0.007019	0.012817	-0.069885	0.01236	0.15961	0.025177	0.15045	-0.011139	-0.085449	-0.046844	0.031738	-0.007477	0.001831	-0.064392	0.015259	0.017548	-0.087891	0.078583	-0.023193	-0.044708	0.014648	0.001984	0.014191	-0.02243	0.081482	-0.007782	0	-0.013428
50.883	0.018463	0.13809	0.053864	-0.002441	-0.033875	0.024109	-0.063324	0.005341	0.19089	-0.012512	0.077972	-0.006714	-0.018616	0.003204	-0.078735	0.013123	0.004883	-0.04364	-0.092621	0.005493	0.050354	0.036926	0.018158	0.041962	0.026703	0.002899	0.022583	-0.017395	0.10101	0.001526	-0.006104	-0.014038
50.884	0.007019	0.13931	0.024567	0.009918	-0.058594	0.0177	0.014191	0.054474	0.04303	-0.019684	-0.098267	-0.008087	0.066986	0.090179	0.059357	-0.006866	0.014801	-0.12619	-0.00824	-0.051727	0.42358	-0.023041	0.013885	-0.051422	0.015259	0.001526	0.021667	-0.01709	0.027313	-0.000458	0.001526	-0.012207
50.885	0.004425	0.12436	0.08667	-0.007324	-0.048523	0.000763	0.10117	-0.01709	-0.038605	-0.003967	-0.13229	-0.006866	0.046844	0.13306	1.5062	0.00351	0.056305	-0.081482	0.073547	-0.11978	0.30045	-0.08667	0.065765	-0.1358	0.003967	-0.003052	0.014343	-0.014191	-0.034943	-0.037079	-0.002289	-0.010376
50.886	-0.001831	0.1886	0.13245	0.000763	-0.014648	0.009918	0.033875	-0.001221	-0.028381	-0.008698	-0.2243	-0.004272	0.015411	0.097046	-0.64667	0.022583	0.003204	-0.083008	0.18616	-0.054016	-0.030212	0.020294	0.006866	-0.077362	0.012665	-0.010681	0.028992	-0.020447	-0.072479	-0.053864	-0.002289	-0.011597
50.887	0.004578	0.1944	0.055542	0.014648	0.037384	0.013275	0.029602	0.001526	0.032654	0.015411	-0.081329	-0.009766	0.014343	0.049591	0.009308	-0.003662	0.011444	-0.099945	0.018463	-0.017395	0.072327	-0.010376	-0.002594	-0.034332	0.022888	0.001068	0.037384	-0.012665	-0.13962	-0.099945	-0.001526	-0.001984
50.888	0.00885	0.12024	-0.076752	0.008392	0.045624	0.099945	0.095367	0.013733	0.12955	0.010834	0.068054	-0.011139	-0.022278	0.047302	-0.21469	-0.00412	0.006714	-0.11124	-0.1265	-0.021973	0.081024	-0.050201	0.004272	-0.041504	0.003357	0.016479	0.024567	-0.006256	-0.010223	-0.13092	-0.002136	-0.002594
50.889	0.006104	0.054626	0.004578	0.001221	0.017395	0.14923	0.054169	0.018463	0.064392	-0.020752	0.11032	-0.01297	0.033112	0.092926	-0.2623	-0.001831	0.042725	-0.16373	-0.17425	-0.00412	0.001831	-0.060425	0.056	-0.13702	0.016327	0.016632	0.018005	0.011444	0.16876	-0.089111	0.000305	-0.005188
50.89	0.007477	0.064087	0.056915	-0.005798	0.017853	0.16861	-0.063782	0.012817	-0.003204	-0.023499	-0.10193	-0.005951	0.018158	0.050201	-0.27115	0.011597	0.11688	-0.16556	-0.13092	0.074158	-0.057526	-0.14053	0.047455	-0.25207	0.00824	0.02121	0.041656	-0.032349	-0.16785	-0.076141	-0.003662	-0.008392
50.891	0.014496	0.11383	0.019836	-0.003357	0.00412	0.21011	-0.070343	0.002594	-0.001526	-0.003815	-0.16495	-0.019379	-0.011597	0.022583	-0.33814	0.000458	0.1239	-0.10788	-0.06485	0.077362	0.04303	-0.22385	-0.010681	-0.24002	0.007629	0.015106	0.0737	-0.32577	-1.0606	-0.075226	-0.007629	-0.006256
50.892	0.00061	0.10269	-0.004578	0.013123	0.006866	0.20187	-0.056458	-0.008545	0.047913	0.023499	-0.07019	-0.012665	-0.049591	0.053253	-0.17624	-0.012817	-0.014954	-0.11383	0.055084	0.062103	-0.06897	-0.20325	0.011902	-0.062561	0.023804	0.019073	-0.024109	-0.16205	-0.60745	-0.2507	-0.005035	-0.005951
50.893	0.000916	0.11505	0.12741	0.01297	-0.005188	0.22614	-0.11047	-0.005493	0.10956	0.011749	0.061798	-0.015717	-0.037994	0.15137	-0.24475	0.000305	-0.14252	-0.14069	0.21835	-0.060577	-0.36316	0.028839	-0.004578	0.033112	0.036011	0.024414	-0.098419	0.16388	-0.02243	-0.51605	-0.00351	0.000305
50.894	0.00061	0.14603	0.13367	0.014954	-0.015259	0.13229	0.027771	-0.027466	0.093536	0.005951	0.13519	-0.003052	-0.054932	0.15198	-0.1387	0.010223	-0.15701	-0.16129	-0.064697	-0.026245	-0.21011	0.224	-0.050354	0.1535	0.052948	0.002289	-0.06897	0.16617	0.15167	-0.66925	-0.005493	-0.01236
50.895	-0.007629	0.10559	0.002136	0.000458	-0.024109	0.079956	0.075836	-0.016174	0.17197	0.024872	0.20584	-0.006104	-0.04303	0.019684	-0.049286	0.006561	-0.11246	-0.16068	-0.24231	0.025177	0.11383	0.15076	-0.0177	0.1358	0.043945	-0.035553	-0.054474	0.26398	0.45715	-0.74951	-0.002441	-0.020447
50.896	-0.014191	0.14572	0.014496	-0.011597	-0.018005	-0.04776	0.15198	0.005646	0.17624	0.023041	0.032959	-0.014648	-0.010681	-0.045166	-0.046997	-0.00061	-0.054169	-0.10819	-0.24597	0.03006	0.18646	0.093384	0.02243	0.13626	0.027618	-0.059967	-0.031281	0.084534	0.23697	-0.40573	0.001831	-0.019836
50.897	-0.00946	0.17517	0.042419	-0.004883	-0.002441	-0.19272	0.16327	0.023804	0.09491	0.000153	-0.23438	-0.015411	0.061035	-0.10712	0.056458	0.004272	-0.000153	-0.10376	-0.20584	0.016022	0.029755	0.10071	-0.015564	0.070648	0.024872	-0.048523	-0.005341	-0.17609	0.35538	0.23865	-0.003052	-0.019531
50.898	-0.000305	0.17822	-0.055542	-0.002441	-0.017242	-0.26764	0.088654	0.013275	-0.031128	0.011292	-0.1384	-0.004578	0.066833	-0.13901	0.15259	-0.00351	0.061798	-0.1413	-0.22308	-0.006104	0.001678	0.20279	0.046082	-0.060577	0.011139	-0.034027	-0.007019	0.07019	0.35355	0.32333	-0.001984	-0.017548
50.899	-0.001678	0.14282	-0.13992	-0.009613	-0.012817	-0.19516	0.096588	-0.007477	-0.050812	0.01709	-0.003204	-0.005646	0.08194	-0.13672	0.19043	-0.01297	0.10178	-0.12894	-0.14481	-0.074768	-0.00946	0.050049	0.11047	-0.18082	-0.02121	-0.012207	-0.001221	0.1091	0.20203	0.63843	-0.001221	-0.01236
